<svg xmlns="http://www.w3.org/2000/svg" viewBox="0 0 1080 1080">
    <g transform="matrix(8.26 0 0 8.26 540 485.48)" id="1b472a77-02ca-46bf-af46-d744f5970f8d">
        <circle style="stroke: rgb(0,0,0); stroke-width: 0; stroke-dasharray: none; stroke-linecap: butt; stroke-dashoffset: 0; stroke-linejoin: miter; stroke-miterlimit: 4; fill: rgb(134,195,208); fill-rule: nonzero; opacity: 1;"
                vector-effect="non-scaling-stroke" cx="0" cy="0" r="35"/>
    </g>
    <g transform="matrix(1 0 0 1 583.61 474.58)">
        <g style="">
		    <g transform="matrix(1 0 0 1 -34.74 0)">
                <path style="stroke: none; stroke-width: 1; stroke-dasharray: none; stroke-linecap: butt; stroke-dashoffset: 0; stroke-linejoin: miter; stroke-miterlimit: 4; fill: rgb(255,255,255); fill-rule: nonzero; opacity: 1;"
                      vector-effect="non-scaling-stroke" transform=" translate(-175.26, -210)"
                      d="M 252.877 92.823 L 306.668 92.823 L 306.673 155.57999999999998 L 333.944 113.23699999999998 L 333.944 77.743 C 333.944 75.57499999999999 333.081 73.496 331.548 71.95599999999999 L 261.984 2.395 C 260.451 0.863 258.371 0 256.199 0 L 41.113 0 C 27.579 0 16.566 11.008 16.566 24.543 L 16.566 395.457 C 16.566 408.991 27.578 420 41.113 420 L 309.396 420 C 322.92900000000003 420 333.94100000000003 408.991 333.94100000000003 395.457 L 333.94100000000003 290.15 L 306.677 331.871 L 306.68100000000004 392.72499999999997 L 43.84 392.72499999999997 L 43.84 27.274 L 242.746 27.274 L 242.746 82.691 C 242.746 88.29 247.281 92.823 252.877 92.823 z"
                      stroke-linecap="round"/>
            </g>
            <g transform="matrix(1 0 0 1 85.16 55.4)">
                <path style="stroke: none; stroke-width: 1; stroke-dasharray: none; stroke-linecap: butt; stroke-dashoffset: 0; stroke-linejoin: miter; stroke-miterlimit: 4; fill: rgb(255,255,255); fill-rule: nonzero; opacity: 1;"
                      vector-effect="non-scaling-stroke" transform=" translate(-295.16, -265.4)"
                      d="M 364.398 195.123 L 353.127 187.759 C 351.28700000000003 186.558 348.824 187.07299999999998 347.621 188.91299999999998 L 286.933 281.779 L 275.263 274.154 L 335.95099999999996 181.28699999999998 C 337.15399999999994 179.44599999999997 336.638 176.98299999999998 334.79799999999994 175.78099999999998 L 323.52699999999993 168.41599999999997 C 321.68699999999995 167.21399999999997 319.2219999999999 167.72999999999996 318.02099999999996 169.56999999999996 L 227.15199999999996 308.62299999999993 C 226.76599999999996 309.21399999999994 226.54499999999996 309.89699999999993 226.50899999999996 310.6019999999999 L 224.13399999999996 358.8599999999999 C 224.06499999999997 360.2689999999999 224.74799999999996 361.6139999999999 225.93099999999995 362.3829999999999 C 227.11399999999995 363.15599999999995 228.61899999999994 363.24299999999994 229.87999999999997 362.6139999999999 L 273.123 341.0609999999999 C 273.757 340.74799999999993 274.293 340.2679999999999 274.681 339.67599999999993 L 365.548 200.62399999999994 C 366.754 198.79 366.236 196.326 364.398 195.123 z"
                      stroke-linecap="round"/>
            </g>
            <g transform="matrix(1 0 0 1 155.24 -60.79)">
                <path style="stroke: none; stroke-width: 1; stroke-dasharray: none; stroke-linecap: butt; stroke-dashoffset: 0; stroke-linejoin: miter; stroke-miterlimit: 4; fill: rgb(255,255,255); fill-rule: nonzero; opacity: 1;"
                      vector-effect="non-scaling-stroke" transform=" translate(-365.24, -149.21)"
                      d="M 401.631 138.145 L 360.76199999999994 111.43700000000001 C 358.9239999999999 110.23600000000002 356.45799999999997 110.75200000000001 355.256 112.59100000000001 L 327.693 154.77 C 326.49199999999996 156.61 327.007 159.07600000000002 328.847 160.27800000000002 L 369.716 186.984 C 371.55400000000003 188.186 374.021 187.67000000000002 375.222 185.83 L 402.784 143.65200000000002 C 403.988 141.812 403.471 139.347 401.631 138.145 z"
                      stroke-linecap="round"/>
            </g>
            <g transform="matrix(1 0 0 1 -87.44 -132.54)">
                <path style="stroke: none; stroke-width: 1; stroke-dasharray: none; stroke-linecap: butt; stroke-dashoffset: 0; stroke-linejoin: miter; stroke-miterlimit: 4; fill: rgb(255,255,255); fill-rule: nonzero; opacity: 1;"
                      vector-effect="non-scaling-stroke" transform=" translate(-122.56, -77.46)"
                      d="M 83.563 87.462 L 161.563 87.462 C 167.08599999999998 87.462 171.563 82.98400000000001 171.563 77.462 C 171.563 71.94 167.08599999999998 67.462 161.563 67.462 L 83.56299999999999 67.462 C 78.03999999999999 67.462 73.56299999999999 71.94 73.56299999999999 77.462 C 73.56299999999999 82.98400000000001 78.042 87.462 83.563 87.462 z"
                      stroke-linecap="round"/>
            </g>
            <g transform="matrix(1 0 0 1 -57.44 -82.54)">
                <path style="stroke: none; stroke-width: 1; stroke-dasharray: none; stroke-linecap: butt; stroke-dashoffset: 0; stroke-linejoin: miter; stroke-miterlimit: 4; fill: rgb(255,255,255); fill-rule: nonzero; opacity: 1;"
                      vector-effect="non-scaling-stroke" transform=" translate(-152.56, -127.46)"
                      d="M 231.563 127.462 C 231.563 121.94 227.08399999999997 117.462 221.563 117.462 L 83.56299999999999 117.462 C 78.03999999999999 117.462 73.56299999999999 121.94 73.56299999999999 127.462 C 73.56299999999999 132.984 78.03999999999999 137.462 83.56299999999999 137.462 L 221.563 137.462 C 227.086 137.462 231.563 132.984 231.563 127.462 z"
                      stroke-linecap="round"/>
            </g>
            <g transform="matrix(1 0 0 1 -87.44 -32.54)">
                <path style="stroke: none; stroke-width: 1; stroke-dasharray: none; stroke-linecap: butt; stroke-dashoffset: 0; stroke-linejoin: miter; stroke-miterlimit: 4; fill: rgb(255,255,255); fill-rule: nonzero; opacity: 1;"
                      vector-effect="non-scaling-stroke" transform=" translate(-122.56, -177.46)"
                      d="M 83.563 187.462 L 161.563 187.462 C 167.08599999999998 187.462 171.563 182.98399999999998 171.563 177.462 C 171.563 171.94 167.08599999999998 167.462 161.563 167.462 L 83.56299999999999 167.462 C 78.03999999999999 167.462 73.56299999999999 171.94 73.56299999999999 177.462 C 73.56299999999999 182.98399999999998 78.042 187.462 83.563 187.462 z"
                      stroke-linecap="round"/>
            </g>
            <g transform="matrix(1 0 0 1 -87.44 17.46)">
                <path style="stroke: none; stroke-width: 1; stroke-dasharray: none; stroke-linecap: butt; stroke-dashoffset: 0; stroke-linejoin: miter; stroke-miterlimit: 4; fill: rgb(255,255,255); fill-rule: nonzero; opacity: 1;"
                      vector-effect="non-scaling-stroke" transform=" translate(-122.56, -227.46)"
                      d="M 83.563 237.462 L 161.563 237.462 C 167.08599999999998 237.462 171.563 232.98399999999998 171.563 227.462 C 171.563 221.941 167.08599999999998 217.462 161.563 217.462 L 83.56299999999999 217.462 C 78.03999999999999 217.462 73.56299999999999 221.941 73.56299999999999 227.462 C 73.563 232.984 78.042 237.462 83.563 237.462 z"
                      stroke-linecap="round"/>
            </g>
            <g transform="matrix(1 0 0 1 -82.72 116.34)">
                <path style="stroke: none; stroke-width: 1; stroke-dasharray: none; stroke-linecap: butt; stroke-dashoffset: 0; stroke-linejoin: miter; stroke-miterlimit: 4; fill: rgb(255,255,255); fill-rule: nonzero; opacity: 1;"
                      vector-effect="non-scaling-stroke" transform=" translate(-127.28, -326.34)"
                      d="M 87.796 366.694 C 85.849 369.21000000000004 89.361 372.776 91.33200000000001 370.22700000000003 C 97.545 362.201 102.676 353.55600000000004 106.96100000000001 344.432 C 109.63500000000002 346.111 113.14600000000002 345.77500000000003 116.02600000000001 344.637 C 120.177 343 123.69600000000001 339.841 127.04700000000001 336.982 C 129.02800000000002 335.29200000000003 131.334 332.50100000000003 134.07600000000002 332.23400000000004 C 136.17000000000002 332.033 138.99800000000002 333.71900000000005 141.091 334.07800000000003 C 146.56 335.01000000000005 152.948 333.427 158.228 332.122 C 163.239 330.885 169.107 328.928 172.056 324.391 C 173.81900000000002 321.67900000000003 169.488 319.175 167.739 321.87 C 165.37800000000001 325.502 159.613 326.634 155.717 327.596 C 151.144 328.727 145.83800000000002 329.842 141.125 329.038 C 137.573 328.434 134.7 326.286 131.048 327.913 C 126.156 330.093 122.419 334.67400000000004 118.099 337.767 C 116.166 339.151 113.95700000000001 340.481 111.539 340.668 C 110.544 340.745 109.733 340.38 109.059 339.772 C 109.591 338.538 110.119 337.298 110.622 336.04699999999997 C 115.498 323.943 117.703 311.65099999999995 119.966 298.90099999999995 C 121.116 292.42199999999997 123.029 282.21299999999997 113.743 281.59 C 105.538 281.042 98.447 292.87699999999995 95.82499999999999 299.114 C 93.47999999999999 304.69199999999995 93.219 311.17199999999997 93.39799999999998 317.128 C 93.50899999999999 320.84 94.84499999999998 324.69399999999996 95.82999999999998 328.532 C 87.95599999999999 329.79499999999996 81.01599999999999 337.748 82.23199999999999 345.632 C 83.42899999999999 353.39 93.12999999999998 349.384 96.75299999999999 346.513 C 100.41999999999999 343.608 101.60699999999999 339.979 101.64599999999999 336.065 C 102.37699999999998 337.27 102.98799999999999 338.715 103.61999999999999 340.067 C 99.395 349.544 94.098 358.552 87.796 366.694 z M 96.56 338.393 C 95.82000000000001 341.691 91.647 344.94699999999995 88.361 345.251 C 85.77600000000001 345.491 87.35300000000001 340.87399999999997 87.864 339.842 C 89.468 336.59999999999997 93.44200000000001 334.484 96.783 333.572 C 96.939 335.199 96.914 336.811 96.56 338.393 z M 100.736 328.712 C 99.885 324.736 98.70400000000001 320.743 98.39800000000001 317.12899999999996 C 97.80600000000001 310.15399999999994 99.04500000000002 302.84499999999997 102.504 296.74499999999995 C 104.665 292.93299999999994 109.07000000000001 287.09099999999995 113.74300000000001 286.59099999999995 C 117.91600000000001 286.14699999999993 115.37100000000001 296.29599999999994 115.01 298.3349999999999 C 113.893 304.6289999999999 113.096 310.8759999999999 111.539 317.0979999999999 C 110.093 322.8759999999999 108.261 328.5979999999999 106.07000000000001 334.19299999999987 C 104.905 331.294 103.388 329.438 100.736 328.712 z"
                      stroke-linecap="round"/>
            </g>
        </g>
    </g>
</svg>